<svg xmlns="http://www.w3.org/2000/svg" width="32" height="42" viewBox="0 0 32 42" fill="none">
  <path d="M5.18983 0.467996C4.97585 0.707976 4.88386 1.39801 4.94483 1.96898C5.00584 2.53896 5.03682 3.01896 5.00584 3.01896C4.97585 3.01896 4.45586 2.80898 3.87588 2.56895C3.26592 2.32897 2.56391 2.20896 2.31994 2.29894C1.67895 2.53892 1.43498 3.46992 1.80094 4.19094C2.28991 5.03093 2.22791 5.12095 1.25096 5.12095C0.243969 5.12095 -0.0290031 5.80996 0.245001 6.49995C0.458979 7.06993 2.28995 8.09293 3.2969 8.12296C4.09089 8.12296 4.09089 8.15296 3.60188 9.17295C3.41888 9.59297 3.1139 9.89293 2.9309 9.80296C1.61794 9.29296 1.52595 9.26297 1.52595 9.68295C1.52595 9.92293 1.80094 10.3739 2.10592 10.6439C2.8389 11.3039 2.65591 13.1659 1.77095 13.7659C1.06796 14.2759 1.06796 14.7859 1.73997 14.6659C2.16694 14.6059 2.31994 14.8459 2.44193 15.9269C2.62493 17.5479 3.96788 20.7299 4.45689 20.7299C4.63989 20.7299 5.00687 20.9399 5.21986 21.2099C5.61684 21.6899 5.43384 21.7199 3.26592 21.5699C1.09898 21.4199 0.854967 21.4799 0.45799 22.0509C0.182998 22.4109 0 23.3409 0 24.2719C0 25.6229 0.121985 26.0129 0.854967 26.7339C1.55693 27.3939 1.80094 28.0539 2.07494 29.7049C3.47989 37.8999 9.21975 42.5229 17.3395 41.9529C24.2393 41.5029 28.3591 37.4499 29.3972 30.1859C29.6721 28.2949 29.9171 27.5739 30.5871 26.7939C31.6871 25.5339 31.8391 23.6719 30.9541 22.3209C30.6181 21.8109 30.1301 21.6009 28.7262 21.4509L26.9562 21.2709L27.4132 20.0999C27.6572 19.4399 28.0542 18.9299 28.2682 18.9299C28.5432 18.9299 28.6032 18.6289 28.4812 17.8789C28.3292 16.8879 28.3902 16.7979 29.4281 16.3779C30.7401 15.8379 30.8631 15.3279 29.7021 15.3279C29.4082 15.3279 29.2151 15.3279 29.0882 15.2369C28.8442 15.0639 28.8382 14.5629 28.8182 13.1059L28.7872 10.8539L29.6721 11.0339C30.8021 11.2439 32.1141 10.4039 31.9921 9.56392C31.9311 9.05393 31.5651 8.69393 30.5881 8.21294C30.5271 8.18295 30.6481 7.88294 30.8321 7.52295C31.3201 6.65193 31.3201 5.12095 30.8321 4.82094C30.1911 4.43096 29.3362 4.85094 28.2982 6.02093L27.3223 7.13193L26.4673 5.96194C25.7953 5.00193 25.7043 4.76092 26.1003 4.64095C26.6503 4.43096 26.7113 3.62096 26.1613 3.62096C25.9483 3.62096 25.6123 3.77096 25.4293 3.95096C25.0013 4.37098 22.8954 3.07994 22.8954 2.35995C22.8954 1.69995 22.3154 1.36896 22.1014 1.90994C21.9794 2.26993 21.7054 2.26993 20.3614 1.90994C19.5075 1.69995 18.1335 1.51893 17.3395 1.51893C15.9666 1.51893 15.8746 1.45894 15.8746 0.738914C15.8746 -0.222083 15.2026 -0.0710905 14.9586 0.948902C14.7446 1.81889 13.1266 2.20892 13.1266 1.39891C13.1266 1.1289 13.0046 0.91891 12.8216 0.91891C12.6697 0.91891 12.5166 1.18893 12.5166 1.51893C12.5166 1.84893 12.2726 2.20892 11.9976 2.32893C11.5097 2.47893 9.15873 3.49991 8.48775 3.85995C8.33475 3.91993 8.24275 3.64996 8.24275 3.22994C8.24275 0.88896 6.31983 -0.88204 5.19086 0.467952L5.18983 0.467996ZM6.89877 1.97001C7.44876 3.26101 7.47875 4.912 6.95979 4.76199C6.47181 4.582 5.64683 2.03 5.89183 1.39999C6.16583 0.680003 6.37981 0.799972 6.89882 1.96997L6.89877 1.97001ZM15.8125 3.08002C16.0875 3.35103 16.1785 3.35103 16.1785 3.08002C16.1785 2.60002 18.8034 2.60002 20.6664 3.05003C22.0093 3.41101 22.0393 3.44105 21.8863 4.40204C21.6734 5.72204 22.1923 6.02205 22.6193 4.85205C22.9253 3.98207 22.9863 3.95207 23.6573 4.40204C24.2673 4.79203 24.3593 5.06204 24.2073 5.81206C24.1263 6.30607 24.0873 6.53707 24.1433 6.56208C24.1913 6.58206 24.3133 6.44108 24.5433 6.1721C24.7553 5.91209 24.8753 5.7651 25.0053 5.75509C25.1753 5.74207 25.3622 5.9631 25.7952 6.47309C27.0452 7.9431 27.7782 10.2851 27.7782 12.7771C27.7782 15.0271 27.6262 15.3581 26.9242 14.6671C26.3442 14.0971 26.4352 15.0271 27.0152 15.6281C27.6872 16.348 27.2902 17.2191 26.5272 16.799C26.1912 16.649 25.9472 16.619 25.9472 16.799C25.9472 16.949 26.1602 17.129 26.4052 17.2491C27.0452 17.489 26.9852 17.819 26.0692 19.6511L25.2752 21.2411L21.3374 21.0911C19.1394 21.001 15.0186 21.1211 12.1496 21.331L6.92975 21.691L6.01377 20.7911C5.12778 19.8911 5.09779 19.6211 5.86077 18.57C6.41075 17.82 5.95276 17.58 5.06677 18.12C4.36481 18.6 4.33477 18.6 3.99881 17.34C3.69383 16.139 3.57184 14.998 3.63281 14.187C3.66281 13.977 4.09081 13.827 4.67078 13.797L5.64674 13.767L4.60977 13.497C3.7548 13.227 3.63282 13.077 3.78479 12.537C3.87678 12.177 3.96779 11.786 3.96779 11.696C3.96779 11.6061 4.3038 11.576 4.73175 11.666C5.64674 11.816 5.79971 11.156 4.88373 10.916C4.30375 10.766 4.30375 10.736 4.91372 9.56504C6.19767 7.10203 9.31157 4.49004 12.1195 3.50004C13.2195 3.11006 13.4325 3.11006 14.0424 3.53003C14.4094 3.77002 14.7754 3.89003 14.8974 3.77002C15.0194 3.65 14.9274 3.47001 14.7444 3.41002C14.5314 3.32 14.3484 3.14001 14.3484 2.99C14.3484 2.60002 15.3854 2.66 15.8134 3.08002H15.8125ZM5.03682 4.252C6.04381 5.12198 6.44078 6.02201 5.83082 6.02201C4.67087 6.02201 2.44193 4.402 2.44193 3.562C2.44193 2.961 4.05987 3.412 5.03686 4.252H5.03682ZM30.5861 6.17201C30.4341 7.10302 29.6401 8.124 28.9081 8.39401C27.5042 8.934 27.6262 7.70402 29.0911 6.08302C29.8541 5.27302 30.7091 5.333 30.5871 6.17304L30.5861 6.17201ZM4.21288 6.202C5.28083 6.41199 5.43285 6.653 4.73188 7.22298C3.93788 7.88298 0.276023 6.75097 0.734013 6.001C0.917012 5.73098 2.04499 5.75199 4.21292 6.20299L4.21288 6.202ZM31.0751 9.535C31.1971 9.95502 30.0371 10.075 29.1211 9.715C28.6331 9.535 28.6331 9.50501 29.1831 9.29498C29.9761 8.96498 30.9231 9.08503 31.0751 9.535ZM10.5317 22.47C13.2176 22.29 18.5904 22.23 22.4363 22.35L22.7533 22.359C28.0091 22.499 29.5661 22.542 30.0271 23.268C30.2211 23.574 30.2211 24.001 30.2211 24.608V24.632C30.2211 26.642 29.9761 26.732 25.6412 26.372C21.8264 26.072 5.98279 26.222 3.4499 26.612C2.25893 26.792 2.16694 26.762 1.70993 25.892C1.12996 24.812 1.09894 24.032 1.55693 23.071C1.86191 22.411 1.98389 22.381 3.75484 22.561C4.79281 22.681 7.8447 22.621 10.5316 22.471L10.5317 22.47ZM18.5904 27.633H28.4501L28.2362 29.314C27.1682 37.809 22.5283 41.561 14.3166 40.541C8.73078 39.881 5.89183 37.239 3.69391 30.725C3.17392 29.225 2.74695 27.813 2.74695 27.633C2.74695 27.333 3.44995 27.273 5.73887 27.423C7.35681 27.543 13.1566 27.633 18.5905 27.633H18.5904ZM10.4397 7.28202C9.91969 7.79202 9.9807 9.47403 10.5297 9.92404C11.1717 10.434 11.4157 10.134 11.0197 9.38405C10.7747 8.96404 10.7747 8.51407 10.9887 7.97305C11.1407 7.55303 11.2937 7.13305 11.2937 7.04303C11.2937 6.80305 10.8047 6.92302 10.4387 7.28301L10.4397 7.28202ZM17.1545 10.824C16.9105 10.824 16.1775 8.45404 16.1775 7.73302C16.2075 7.55303 16.4835 7.70303 16.7875 8.09302C17.3675 8.78301 17.6434 10.824 17.1545 10.824ZM18.6805 9.68402C18.2235 10.134 18.1925 10.824 18.6205 10.824C18.8025 10.824 18.9255 10.704 18.9255 10.554C18.9255 10.404 19.1995 10.164 19.5354 10.074C19.8714 9.98398 20.1454 9.744 20.1454 9.594C20.1454 9.20401 19.1084 9.264 18.6804 9.68402H18.6805ZM7.02978 10.217C7.02179 10.15 7.06978 10.077 7.13978 9.97402L7.17278 9.924C7.44678 9.47399 8.69872 9.774 9.8277 10.554C10.5917 11.094 11.0496 11.935 10.4387 11.664C10.3167 11.604 9.52271 11.304 8.69872 11.004L8.35975 10.874C7.3538 10.486 7.0468 10.3671 7.02978 10.217V10.217ZM15.7195 14.307C15.4145 14.607 15.2615 15.177 15.3225 15.747C15.4445 16.888 15.9945 16.858 16.1165 15.717C16.1776 15.267 16.3606 14.727 16.5135 14.5171C17.0015 13.9471 16.2995 13.767 15.7195 14.3071V14.307ZM19.5354 16.377C19.3834 16.287 19.6884 15.747 20.2374 15.177C21.2454 14.097 21.6723 13.887 21.6723 14.457C21.6723 14.967 19.8714 16.587 19.5354 16.377L19.5354 16.377ZM11.9036 15.627C11.9036 15.777 12.1786 15.927 12.5136 15.927C12.8506 15.927 13.3996 16.1971 13.7355 16.5271C14.0716 16.858 14.4065 17.1281 14.4985 17.1281C14.8655 17.1281 14.6205 16.498 14.0405 15.9281C13.4005 15.2981 11.9036 15.0871 11.9036 15.6281L11.9036 15.627ZM21.1534 17.639C19.9334 17.699 19.8404 17.279 21.0014 16.889C22.0084 16.559 23.0153 16.859 23.1683 17.579C23.2293 17.999 23.1383 18.059 22.7103 17.879C22.3743 17.729 21.6724 17.639 21.1534 17.639Z" fill="white"/>
</svg>