<svg xmlns="http://www.w3.org/2000/svg" width="154" height="42" viewBox="0 0 154 42" fill="none">
  <path d="M44.8919 28.992C45.3629 28.992 45.6927 28.88 45.8811 28.656C46.0695 28.432 46.1794 28.12 46.2109 27.72C46.258 27.32 46.2815 26.856 46.2815 26.328V14.664C46.2972 14.376 46.3208 14.072 46.3522 13.752L45.5043 13.8C45.2059 13.8 44.939 13.808 44.7035 13.824V12.552C45.41 12.552 45.9675 12.52 46.3757 12.456C46.7997 12.376 47.1216 12.288 47.3414 12.192C47.5769 12.096 47.7496 11.992 47.8596 11.88H48.7546V27.024C48.7537 27.6506 48.7195 28.2681 48.6537 28.8758L48.6604 28.8C48.9116 28.784 49.1629 28.7759 49.4141 28.7759C49.681 28.76 49.9244 28.7439 50.1442 28.7279V29.9999H44.8919V28.992ZM51.891 28.992C52.3621 28.992 52.6918 28.88 52.8803 28.656C53.0687 28.432 53.1786 28.12 53.21 27.72C53.2571 27.32 53.2807 26.856 53.2807 26.328V21.36C53.2807 21.088 53.2885 20.816 53.3042 20.544C53.3199 20.2559 53.3435 19.952 53.3749 19.6319L52.527 19.6799C52.2287 19.6799 51.9539 19.6879 51.7027 19.704V18.432C52.4092 18.432 52.9667 18.3999 53.3749 18.336C53.7989 18.256 54.1208 18.168 54.3406 18.072C54.5761 17.976 54.7488 17.8719 54.8587 17.76H55.7538V27.024C55.7529 27.6506 55.7187 28.2681 55.6529 28.8758L55.6596 28.8C55.9108 28.784 56.162 28.7759 56.4132 28.7759C56.6802 28.76 56.9236 28.7439 57.1434 28.7279V29.9999H51.8911L51.891 28.992ZM54.4112 15.552C54.003 15.552 53.6575 15.4 53.3749 15.096C53.1118 14.8018 52.9506 14.4088 52.9506 13.9775C52.9506 13.9657 52.9507 13.9539 52.951 13.9422L52.9509 13.944C52.9509 13.496 53.1001 13.12 53.3984 12.816C53.6968 12.496 54.0344 12.336 54.4112 12.336C54.8194 12.336 55.157 12.496 55.4239 12.816C55.7066 13.12 55.8479 13.496 55.8479 13.944C55.8479 14.392 55.7066 14.776 55.4239 15.096C55.1842 15.3762 54.8333 15.5524 54.442 15.5524C54.4312 15.5524 54.4203 15.5522 54.4095 15.552H54.4112ZM58.6017 30V28.992C59.0727 28.992 59.3936 28.88 59.5663 28.656C59.7547 28.432 59.8647 28.12 59.8961 27.72C59.9432 27.32 59.9668 26.856 59.9668 26.328L59.9903 15.48V14.6639C60.006 14.3759 60.0296 14.072 60.061 13.7519L59.2131 13.7999C58.9148 13.7999 58.6478 13.8079 58.4123 13.824V12.5519C59.1032 12.5519 59.6527 12.5199 60.061 12.456C60.4366 12.3924 60.7693 12.3006 61.0879 12.1794L61.0502 12.192C61.2857 12.096 61.4506 11.9919 61.5448 11.88H62.4398V23.088H63.4526L65.9256 20.3759L66.5851 19.704C66.7735 19.512 66.9619 19.344 67.1504 19.2L65.6665 19.248V18H70.3064V18.984C69.7435 19.0469 69.2325 19.2262 68.7814 19.4978L68.7991 19.488C68.3441 19.754 67.9506 20.0479 67.5926 20.3808L67.5979 20.376C67.2368 20.712 66.9306 21.024 66.6793 21.312L64.9364 23.184C65.2348 23.328 65.4939 23.512 65.7137 23.736C65.9335 23.944 66.1691 24.216 66.4203 24.552L68.069 26.712C68.1475 26.808 68.2731 26.984 68.4458 27.24C68.6342 27.48 68.854 27.736 69.1053 28.008C69.3565 28.28 69.6156 28.512 69.8825 28.704C70.1652 28.896 70.4321 28.992 70.6833 28.992V30H68.3526C67.8972 30 67.4733 29.784 67.0807 29.352C66.68 28.8895 66.2711 28.3816 65.8803 27.8588L65.8324 27.792C65.6244 27.5201 65.2841 27.0513 64.9489 26.5784L64.7961 26.352C64.4821 25.888 64.1916 25.472 63.9246 25.104C63.7083 24.78 63.4916 24.4982 63.2582 24.2319L63.2652 24.24L62.4408 24.288V27.024C62.4408 27.312 62.433 27.608 62.4173 27.912C62.4173 28.2 62.3937 28.496 62.3466 28.8C62.5978 28.784 62.8569 28.7759 63.1238 28.7759C63.3908 28.76 63.6342 28.7439 63.854 28.7279V29.9999L58.6017 30ZM77.3017 30.384C76.2026 30.384 75.2134 30.1279 74.334 29.616C73.4704 29.088 72.7874 28.352 72.2849 27.408C71.7825 26.448 71.5313 25.32 71.5313 24.024C71.5313 22.904 71.7747 21.856 72.2614 20.88C72.7597 19.9111 73.4706 19.1175 74.3344 18.5425L74.3577 18.528C75.2527 17.92 76.289 17.616 77.4666 17.616C78.1261 17.616 78.7464 17.72 79.3273 17.928C79.9432 18.1449 80.4705 18.4812 80.9063 18.913L80.9054 18.912C81.3764 19.344 81.7454 19.912 82.0124 20.616C82.2793 21.304 82.4128 22.144 82.4128 23.136L74.3105 23.28C74.3105 24.368 74.4283 25.336 74.6638 26.184C74.9151 27.032 75.3155 27.688 75.865 28.152C76.4146 28.616 77.129 28.848 78.0084 28.848C78.4323 28.848 78.8798 28.776 79.3509 28.632C79.8376 28.472 80.293 28.248 80.717 27.96C81.1494 27.6779 81.5158 27.3352 81.8166 26.9382L81.824 26.928L82.5541 27.576C82.0831 28.296 81.5414 28.864 80.9289 29.28C80.3166 29.68 79.6885 29.96 79.0447 30.12C78.5246 30.2792 77.9259 30.375 77.3066 30.384L77.3017 30.384ZM74.4047 22.032H79.8454C79.8454 21.424 79.7591 20.88 79.5863 20.4C79.4293 19.904 79.1781 19.512 78.8327 19.224C78.4872 18.9359 78.0476 18.7919 77.5137 18.7919C76.6815 18.7919 75.9985 19.0639 75.4646 19.608C74.9308 20.136 74.5774 20.944 74.4047 22.032ZM89.9987 30.384C88.9467 30.384 87.981 30.144 87.1017 29.664C86.2153 29.1572 85.4973 28.4409 84.9962 27.5784L84.982 27.552C84.4638 26.64 84.2047 25.536 84.2047 24.24C84.2047 23.376 84.3539 22.552 84.6522 21.768C84.9505 20.968 85.3667 20.256 85.9005 19.632C86.4324 19.0263 87.0742 18.5335 87.7957 18.1838L87.8318 18.168C88.5855 17.8 89.4177 17.616 90.3284 17.616C91.2548 17.616 92.0478 17.76 92.7073 18.048C93.3668 18.336 93.8692 18.712 94.2147 19.176C94.5758 19.64 94.7564 20.144 94.7564 20.688C94.7564 21.072 94.6465 21.408 94.4267 21.696C94.2068 21.984 93.8928 22.128 93.4845 22.128C93.0292 22.144 92.7073 22.008 92.5189 21.72C92.3305 21.416 92.2362 21.136 92.2362 20.88C92.2362 20.736 92.2598 20.576 92.3069 20.4C92.354 20.208 92.4404 20.04 92.566 19.896C92.4536 19.5759 92.2377 19.3171 91.9602 19.1556L91.9536 19.152C91.7022 19.0045 91.4092 18.8955 91.0976 18.8422L91.0821 18.84C90.8585 18.7989 90.5982 18.7729 90.333 18.7681L90.3284 18.768C89.3706 18.784 88.562 19.208 87.9025 20.04C87.2587 20.856 86.9368 22.04 86.9368 23.592C86.9368 24.584 87.0781 25.472 87.3608 26.256C87.6591 27.04 88.091 27.664 88.6562 28.1281C89.2215 28.5921 89.8967 28.8321 90.6818 28.848C91.3883 28.848 92.0714 28.664 92.7309 28.296C93.3708 27.9287 93.905 27.4458 94.3228 26.8699L94.3325 26.856L95.0861 27.528C94.6308 28.248 94.1048 28.816 93.5081 29.232C92.9271 29.648 92.3304 29.944 91.7181 30.12C91.2045 30.2825 90.6136 30.3786 90.0015 30.384L89.9987 30.384ZM103.667 30C103.636 29.744 103.612 29.52 103.597 29.328C103.576 29.0873 103.551 28.8816 103.52 28.6783L103.526 28.728C103.041 29.2327 102.473 29.651 101.842 29.9602L101.807 29.9761C101.246 30.2339 100.592 30.384 99.9028 30.384C99.9014 30.384 99.9 30.384 99.8986 30.384C98.7681 30.384 97.9125 30.1041 97.3316 29.544C96.7663 28.9681 96.4837 28.2561 96.4837 27.408C96.4837 26.672 96.6957 26.032 97.1196 25.488C97.5436 24.944 98.101 24.504 98.7919 24.168C99.4449 23.8308 100.202 23.5646 100.998 23.4089L101.053 23.4C101.774 23.2347 102.603 23.1387 103.454 23.136H103.455V21.72C103.455 21.208 103.408 20.736 103.314 20.304C103.22 19.856 103.024 19.496 102.725 19.224C102.443 18.936 101.995 18.792 101.383 18.792C101.356 18.791 101.324 18.7905 101.293 18.7905C100.882 18.7905 100.492 18.8794 100.14 19.0393L100.158 19.032C99.7498 19.192 99.4357 19.464 99.2159 19.848C99.3415 19.976 99.42 20.128 99.4514 20.304C99.4985 20.464 99.5221 20.616 99.5221 20.76C99.5221 20.984 99.4279 21.24 99.2394 21.5279C99.051 21.7999 98.7291 21.9279 98.2738 21.9119C97.8969 21.9119 97.6064 21.7839 97.4023 21.5279C97.2254 21.2745 97.1195 20.9586 97.1195 20.6176C97.1195 20.6085 97.1196 20.5996 97.1197 20.5906V20.592C97.1197 20.016 97.3238 19.5039 97.7321 19.0559C98.156 18.608 98.7291 18.256 99.4514 18C100.174 17.7439 100.982 17.6159 101.877 17.6159C103.228 17.6159 104.233 17.9759 104.892 18.696C105.567 19.4159 105.905 20.5519 105.905 22.1039V23.7599C105.905 24.2879 105.897 24.8159 105.881 25.3439V27.0239C105.881 27.2639 105.874 27.5359 105.858 27.84C105.842 28.144 105.819 28.4639 105.787 28.8L106.611 28.752C106.894 28.736 107.161 28.7279 107.412 28.7279V29.9999L103.667 30ZM103.455 24.24C102.953 24.272 102.435 24.344 101.901 24.456C101.368 24.569 100.895 24.7431 100.457 24.9749L100.488 24.96C100.075 25.1745 99.7293 25.4654 99.4562 25.8174L99.4513 25.824C99.2 26.176 99.0744 26.6 99.0744 27.096C99.1058 27.64 99.2786 28.04 99.5926 28.296C99.9223 28.552 100.307 28.68 100.747 28.68C101.296 28.68 101.783 28.576 102.207 28.368C102.683 28.1075 103.093 27.8044 103.458 27.4533L103.455 27.456C103.44 27.2978 103.432 27.114 103.432 26.928V25.536C103.447 25.136 103.455 24.704 103.455 24.24ZM114.61 30.384C113.558 30.384 112.592 30.144 111.713 29.664C110.826 29.1572 110.108 28.4409 109.607 27.5784L109.593 27.552C109.075 26.64 108.816 25.536 108.816 24.24C108.816 23.376 108.965 22.552 109.263 21.768C109.561 20.968 109.978 20.256 110.511 19.632C111.043 19.0263 111.685 18.5335 112.407 18.1838L112.443 18.168C113.196 17.8 114.029 17.616 114.939 17.616C115.866 17.616 116.659 17.76 117.318 18.048C117.978 18.336 118.48 18.712 118.826 19.176C119.187 19.64 119.367 20.144 119.367 20.688C119.367 21.072 119.257 21.408 119.038 21.696C118.818 21.984 118.504 22.128 118.095 22.128C117.64 22.144 117.318 22.008 117.13 21.72C116.941 21.416 116.847 21.136 116.847 20.88C116.847 20.736 116.871 20.576 116.918 20.4C116.965 20.208 117.051 20.04 117.177 19.896C117.064 19.5759 116.849 19.3171 116.571 19.1556L116.564 19.152C116.313 19.0045 116.02 18.8955 115.708 18.8422L115.693 18.84C115.469 18.7989 115.209 18.7729 114.944 18.7681L114.939 18.768C113.981 18.784 113.173 19.208 112.513 20.04C111.87 20.856 111.548 22.04 111.548 23.592C111.548 24.584 111.689 25.472 111.972 26.256C112.27 27.04 112.702 27.664 113.267 28.1281C113.832 28.5921 114.508 28.8321 115.293 28.848C115.999 28.848 116.682 28.664 117.342 28.296C117.982 27.9287 118.516 27.4458 118.934 26.8699L118.943 26.856L119.697 27.528C119.242 28.248 118.716 28.816 118.119 29.232C117.538 29.648 116.941 29.944 116.329 30.12C115.815 30.2825 115.224 30.3786 114.612 30.384L114.61 30.384ZM125.783 30.384C125.391 30.384 124.998 30.328 124.606 30.2159C124.176 30.1029 123.803 29.8947 123.496 29.6137L123.499 29.6159C123.169 29.2959 122.91 28.8399 122.722 28.2479C122.533 27.656 122.439 26.872 122.439 25.896L122.486 19.344H120.743V18C121.167 17.984 121.599 17.8239 122.039 17.5199C122.478 17.2159 122.863 16.808 123.193 16.2959C123.504 15.8223 123.74 15.2678 123.87 14.6723L123.876 14.64H124.983V18H128.61V19.2479L124.983 19.2959L124.936 25.7039C124.935 25.7319 124.935 25.765 124.935 25.798C124.935 26.3335 124.987 26.8567 125.085 27.3628L125.077 27.3119C125.187 27.7599 125.36 28.1119 125.595 28.3679C125.846 28.6079 126.184 28.7279 126.608 28.7279C126.969 28.7279 127.338 28.6159 127.715 28.3919C128.107 28.1679 128.476 27.7999 128.822 27.2879L129.623 28.0079C129.246 28.5679 128.869 29.0079 128.492 29.3279C128.115 29.6479 127.754 29.8799 127.409 30.0239C127.063 30.1839 126.749 30.2799 126.467 30.3119C126.184 30.3599 125.956 30.384 125.783 30.384ZM135.569 30.384C134.689 30.384 133.959 30.2159 133.378 29.88C132.813 29.544 132.389 28.992 132.106 28.224C131.824 27.44 131.683 26.408 131.683 25.128V20.52C131.698 20.216 131.73 19.92 131.777 19.632L130.929 19.68C130.63 19.68 130.364 19.688 130.128 19.704V18.432H130.693C131.478 18.432 132.067 18.36 132.46 18.216C132.852 18.072 133.127 17.92 133.284 17.76H134.179V25.08C134.179 26.344 134.352 27.288 134.697 27.912C135.043 28.536 135.624 28.84 136.44 28.824C136.974 28.824 137.484 28.664 137.971 28.344C138.474 28.024 138.882 27.648 139.196 27.216V21.528C139.196 21.176 139.204 20.848 139.219 20.544C139.235 20.224 139.266 19.92 139.314 19.632L138.442 19.68C138.144 19.68 137.869 19.688 137.618 19.704V18.432H138.301C138.992 18.432 139.533 18.36 139.926 18.216C140.319 18.072 140.601 17.92 140.774 17.76H141.669L141.645 26.592C141.645 26.848 141.638 27.2 141.622 27.648C141.606 28.08 141.583 28.464 141.551 28.8L142.376 28.752C142.674 28.736 142.949 28.728 143.2 28.728V30H139.455C139.403 29.5462 139.369 29.3001 139.334 29.0547L139.361 29.28C139.343 29.0289 139.318 28.8063 139.284 28.5867L139.29 28.632C138.797 29.0977 138.24 29.5044 137.637 29.8346L137.594 29.856C137.009 30.188 136.311 30.3836 135.569 30.384ZM149.855 30.384C149.836 30.3841 149.814 30.3843 149.793 30.3843C149.083 30.3843 148.399 30.27 147.759 30.0586L147.806 30.072C147.177 29.88 146.675 29.6479 146.298 29.376L146.369 30.168H145.12L145.003 26.0399H145.992C146.023 26.6319 146.204 27.168 146.534 27.648C146.863 28.128 147.287 28.5039 147.806 28.776C148.3 29.0333 148.883 29.1841 149.502 29.1841C149.51 29.1841 149.518 29.184 149.526 29.184H149.525C149.886 29.184 150.239 29.128 150.585 29.016C150.925 28.8929 151.216 28.7044 151.457 28.4636C151.692 28.2076 151.81 27.896 151.81 27.528C151.81 27.128 151.684 26.8 151.433 26.544C151.197 26.272 150.867 26.032 150.443 25.824C150.081 25.6345 149.615 25.4245 149.138 25.2373L149.03 25.2C148.559 25.0081 148.08 24.808 147.594 24.6C147.088 24.3756 146.654 24.1269 146.25 23.8392L146.275 23.856C145.879 23.5794 145.555 23.2263 145.317 22.8152L145.309 22.8C145.073 22.368 144.956 21.84 144.956 21.216C144.956 20.848 145.026 20.456 145.168 20.04C145.309 19.608 145.537 19.216 145.851 18.864C146.165 18.496 146.589 18.2 147.122 17.976C147.656 17.736 148.316 17.616 149.101 17.616C149.525 17.616 149.996 17.688 150.514 17.832C151.082 17.9891 151.578 18.245 152.008 18.5834L151.998 18.576L151.974 17.736H153.223V21.96H152.21C152.163 21.4 152.014 20.88 151.762 20.4001C151.524 19.9177 151.18 19.5213 150.76 19.2309L150.75 19.224C150.31 18.92 149.776 18.7681 149.148 18.7681C148.536 18.7681 148.033 18.9281 147.641 19.2481C147.264 19.5521 147.075 19.9361 147.075 20.4001C147.075 20.864 147.217 21.24 147.499 21.5281C147.798 21.8161 148.182 22.0641 148.653 22.2721C149.125 22.4801 149.635 22.688 150.184 22.8961C150.844 23.1681 151.464 23.4641 152.045 23.7841C152.626 24.104 153.097 24.504 153.458 24.984C153.819 25.464 154 26.072 154 26.808C154 27.608 153.796 28.28 153.388 28.824C152.995 29.352 152.485 29.744 151.857 30C151.229 30.256 150.561 30.384 149.855 30.384Z" fill="white"/>
  <path d="M5.0933 0.467995C4.88331 0.707975 4.79302 1.39801 4.85286 1.96898C4.91274 2.53896 4.94314 3.01896 4.91274 3.01896C4.88331 3.01896 4.37298 2.80897 3.8038 2.56895C3.20517 2.32897 2.51623 2.20896 2.2768 2.29893C1.64773 2.53891 1.4083 3.46992 1.76744 4.19093C2.24732 5.03093 2.18647 5.12095 1.22769 5.12095C0.239432 5.12095 -0.0284637 5.80995 0.240444 6.49994C0.450442 7.06992 2.24736 8.09292 3.23558 8.12295C4.01481 8.12295 4.01481 8.15294 3.53489 9.17294C3.35529 9.59295 3.05598 9.89292 2.87639 9.80294C1.58785 9.29295 1.49757 9.26296 1.49757 9.68293C1.49757 9.92291 1.76744 10.3739 2.06676 10.6439C2.78611 11.3039 2.60651 13.1659 1.73801 13.7659C1.04809 14.2759 1.04809 14.7859 1.70761 14.6659C2.12663 14.6059 2.2768 14.8459 2.39651 15.9269C2.57611 17.5479 3.89408 20.7299 4.374 20.7299C4.55359 20.7299 4.91375 20.9399 5.12278 21.2099C5.51237 21.6899 5.33278 21.7199 3.20517 21.5699C1.07854 21.4199 0.839066 21.4799 0.449472 22.0509C0.179595 22.4109 0 23.3409 0 24.2719C0 25.6229 0.119716 26.0129 0.839066 26.7339C1.52797 27.3939 1.76744 28.0539 2.03635 29.7048C3.41517 37.8998 9.04827 42.5228 17.017 41.9528C23.7885 41.5028 27.8317 37.4498 28.8504 30.1858C29.1203 28.2948 29.3607 27.5738 30.0183 26.7938C31.0978 25.5338 31.2469 23.6719 30.3784 22.3208C30.0487 21.8108 29.5698 21.6009 28.1919 21.4509L26.4549 21.2709L26.9034 20.0999C27.1428 19.4399 27.5324 18.9299 27.7424 18.9299C28.0123 18.9299 28.0712 18.6289 27.9515 17.8789C27.8023 16.8879 27.8622 16.7979 28.8808 16.3779C30.1684 15.8379 30.2891 15.3279 29.1497 15.3279C28.8612 15.3279 28.6718 15.3279 28.5472 15.2369C28.3077 15.0639 28.3018 14.5629 28.2822 13.1059L28.2518 10.8539L29.1203 11.0339C30.2292 11.2439 31.5168 10.4039 31.3971 9.56391C31.3372 9.05391 30.9781 8.69392 30.0192 8.21293C29.9594 8.18294 30.0781 7.88293 30.2587 7.52294C30.7376 6.65192 30.7376 5.12094 30.2587 4.82094C29.6296 4.43095 28.7906 4.85093 27.7719 6.02092L26.8141 7.13192L25.975 5.96193C25.3156 5.00192 25.2262 4.76091 25.6149 4.64094C26.1546 4.43095 26.2145 3.62095 25.6747 3.62095C25.4657 3.62095 25.136 3.77095 24.9564 3.95095C24.5363 4.37097 22.4696 3.07993 22.4696 2.35995C22.4696 1.69995 21.9004 1.36896 21.6903 1.90994C21.5706 2.26993 21.3017 2.26993 19.9827 1.90994C19.1446 1.69995 17.7962 1.51892 17.017 1.51892C15.6696 1.51892 15.5793 1.45894 15.5793 0.738912C15.5793 -0.222082 14.9198 -0.0710904 14.6804 0.9489C14.4704 1.81889 12.8825 2.20891 12.8825 1.39891C12.8825 1.1289 12.7628 0.918908 12.5832 0.918908C12.434 0.918908 12.2839 1.18892 12.2839 1.51892C12.2839 1.84892 12.0444 2.20891 11.7745 2.32893C11.2956 2.47893 8.9884 3.49991 8.32989 3.85994C8.17973 3.91993 8.08945 3.64996 8.08945 3.22994C8.08945 0.888959 6.20229 -0.882038 5.09432 0.467952L5.0933 0.467995ZM6.77047 1.97001C7.31022 3.261 7.33966 4.91199 6.83035 4.76198C6.35144 4.58199 5.54181 2.02999 5.78225 1.39999C6.05116 0.680002 6.26112 0.800014 6.77047 1.97001ZM15.5184 3.08002C15.7883 3.35102 15.8776 3.35102 15.8776 3.08002C15.8776 2.60002 18.4537 2.60002 20.282 3.05003C21.6 3.41101 21.6294 3.44104 21.4793 4.40204C21.2703 5.72203 21.7796 6.02204 22.1986 4.85205C22.4989 3.98206 22.5588 3.95207 23.2173 4.40204C23.8159 4.79202 23.9062 5.06204 23.7571 5.81205C23.6776 6.30607 23.6393 6.53706 23.6943 6.56207C23.7414 6.58205 23.8611 6.44107 24.0868 6.17209C24.2949 5.91209 24.4127 5.76509 24.5402 5.75508C24.707 5.74206 24.8905 5.96309 25.3155 6.47308C26.5422 7.94309 27.2615 10.2851 27.2615 12.7771C27.2615 15.0271 27.1124 15.3581 26.4234 14.667C25.8543 14.0971 25.9436 15.027 26.5128 15.628C27.1722 16.348 26.7826 17.219 26.0339 16.799C25.7041 16.649 25.4647 16.619 25.4647 16.799C25.4647 16.949 25.6737 17.129 25.9141 17.249C26.5422 17.489 26.4833 17.819 25.5844 19.651L24.8052 21.241L20.9405 21.091C18.7835 21.001 14.7392 21.121 11.9237 21.331L6.80087 21.691L5.90193 20.791C5.03241 19.891 5.00298 19.621 5.75176 18.57C6.29152 17.82 5.84205 17.58 4.97253 18.12C4.28363 18.6 4.25415 18.6 3.92444 17.34C3.62513 16.139 3.50541 14.998 3.56525 14.187C3.59468 13.977 4.01472 13.827 4.58391 13.797L5.54172 13.767L4.52403 13.497C3.68497 13.227 3.56525 13.077 3.7144 12.537C3.80468 12.177 3.89399 11.786 3.89399 11.696C3.89399 11.606 4.22375 11.576 4.64375 11.666C5.54172 11.816 5.69184 11.156 4.7929 10.916C4.22371 10.766 4.22371 10.736 4.82233 9.56503C6.08241 7.10202 9.13839 4.49004 11.8941 3.50004C12.9736 3.11005 13.1826 3.11005 13.7813 3.53003C14.1414 3.77001 14.5006 3.89002 14.6203 3.77001C14.74 3.65 14.6497 3.47 14.4702 3.41002C14.2611 3.32 14.0815 3.14 14.0815 2.99C14.0815 2.60002 15.0984 2.66 15.5184 3.08002ZM4.94314 4.25199C5.9314 5.12198 6.32099 6.022 5.72237 6.022C4.584 6.022 2.39651 4.40199 2.39651 3.562C2.39651 2.96099 3.98432 3.41199 4.94314 4.25199ZM30.0172 6.172C29.8681 7.103 29.0889 8.12398 28.3705 8.394C26.9926 8.93399 27.1124 7.70401 28.5501 6.08301C29.2989 5.27301 30.1379 5.333 30.0182 6.17303L30.0172 6.172ZM4.13452 6.20199C5.18262 6.41198 5.33181 6.65299 4.64387 7.22297C3.86464 7.88297 0.270889 6.75096 0.720362 6.00099C0.899957 5.73097 2.00692 5.751 4.13452 6.20199ZM30.4971 9.53499C30.6168 9.95501 29.4785 10.075 28.5795 9.71499C28.1006 9.53499 28.1006 9.505 28.6404 9.29497C29.4186 8.96497 30.348 9.08502 30.4971 9.53499ZM10.3358 22.47C12.9718 22.29 18.2447 22.23 22.019 22.35L22.3301 22.359C27.4882 22.4989 29.0162 22.542 29.4686 23.268C29.659 23.5739 29.659 24.001 29.659 24.6079V24.632C29.659 26.6419 29.4186 26.732 25.1643 26.372C21.4204 26.072 5.87152 26.222 3.38574 26.6119C2.21692 26.7919 2.12663 26.762 1.67813 25.892C1.10894 24.8119 1.0785 24.032 1.52797 23.071C1.82728 22.411 1.947 22.381 3.68501 22.561C4.70367 22.681 7.69885 22.62 10.3358 22.47ZM18.2447 27.633H27.921L27.711 29.314C26.6629 37.8089 22.1093 41.5609 14.0503 40.5409C8.5684 39.8809 5.78225 37.2389 3.62521 30.725C3.11489 29.225 2.69586 27.813 2.69586 27.633C2.69586 27.333 3.38578 27.273 5.63213 27.423C7.21998 27.543 12.9119 27.633 18.2447 27.633ZM10.2455 7.28201C9.7352 7.79201 9.79508 9.47402 10.3339 9.92403C10.9639 10.434 11.2034 10.134 10.8147 9.38404C10.5743 8.96402 10.5743 8.51405 10.7843 7.97303C10.9335 7.55302 11.0837 7.13304 11.0837 7.04302C11.0837 6.80304 10.6038 6.92301 10.2446 7.283L10.2455 7.28201ZM16.8354 10.824C16.5959 10.824 15.8766 8.45403 15.8766 7.73301C15.9061 7.55302 16.1769 7.70302 16.4753 8.093C17.0444 8.783 17.3153 10.824 16.8354 10.824ZM18.333 9.684C17.8845 10.134 17.8541 10.824 18.2742 10.824C18.4528 10.824 18.5735 10.704 18.5735 10.554C18.5735 10.404 18.8424 10.164 19.1721 10.074C19.5019 9.98397 19.7707 9.74399 19.7707 9.59399C19.7707 9.204 18.7531 9.26399 18.333 9.684ZM6.89904 10.217C6.89119 10.15 6.9383 10.077 7.00699 9.974L7.03937 9.92399C7.30828 9.47397 8.53694 9.77398 9.64491 10.554C10.3947 11.094 10.8441 11.935 10.2445 11.664C10.1248 11.604 9.3456 11.304 8.53694 11.004L8.20428 10.874C7.21703 10.486 6.91574 10.367 6.89904 10.217ZM15.4272 14.307C15.1279 14.607 14.9777 15.177 15.0376 15.747C15.1573 16.888 15.697 16.858 15.8168 15.717C15.8767 15.267 16.0563 14.727 16.2064 14.517C16.6853 13.9471 15.9964 13.767 15.4272 14.307ZM19.1721 16.377C19.0229 16.287 19.3223 15.747 19.861 15.177C20.8502 14.097 21.2693 13.887 21.2693 14.457C21.2693 14.967 19.5019 16.587 19.1721 16.377ZM11.6822 15.627C11.6822 15.777 11.9521 15.927 12.2809 15.927C12.6116 15.927 13.1504 16.197 13.4801 16.527C13.8098 16.858 14.1386 17.128 14.2289 17.128C14.589 17.128 14.3486 16.498 13.7794 15.928C13.1513 15.298 11.6822 15.0871 11.6822 15.628L11.6822 15.627ZM20.7599 17.639C19.5627 17.699 19.4714 17.279 20.6108 16.889C21.5991 16.559 22.5873 16.859 22.7374 17.5789C22.7973 17.999 22.708 18.0589 22.288 17.879C21.9582 17.7289 21.2693 17.639 20.7599 17.639Z" fill="white"/>
</svg>